ffmpeg started on 2025-05-26 at 18:07:50
Report written to "D:\Convert\FFMetrics\reports\psnr_report-6.txt"
Log level: 32
Command line:
ffmpeg -hide_banner -nostdin -i "G:\\\xc0\xed\xe8\xec\xe5\\\xce\xed\xe3\xee\xe8\xed\xe3\xe8\\!_34_\xc2\xe5\xf1\xed\xe0_2024\\DreamCast\\\xc4\xe2\xe5 \xf1\xf2\xee\xf0\xee\xed\xfb \xf1\xfd\xe9\xfe \xf0\xe0\xe4\xe8\xee\\[DC] Seiyuu Radio no Uraomote - 04_Telegram_HEVC.mkv" -i "G:\\\xc0\xed\xe8\xec\xe5\\\xce\xed\xe3\xee\xe8\xed\xe3\xe8\\!_34_\xc2\xe5\xf1\xed\xe0_2024\\DreamCast\\\xc4\xe2\xe5 \xf1\xf2\xee\xf0\xee\xed\xfb \xf1\xfd\xe9\xfe \xf0\xe0\xe4\xe8\xee\\[DC] Seiyuu Radio no Uraomote - 04_Telegram.mp4" -lavfi "[0:v]settb=AVTB,setpts=PTS-STARTPTS,format=pix_fmts=yuv420p10,fps=24000/1001,scale=1920:1080:flags=bicubic[main];[1:v]settb=AVTB,setpts=PTS-STARTPTS,format=pix_fmts=yuv420p,fps=24000/1001,scale=1920:1080:flags=bicubic[ref];[main][ref]psnr=eof_action=endall:stats_file='D\\:/Convert/FFMetrics/logs/psnr_logfile-6.txt'" -f null -
Input #0, matroska,webm, from 'G:\Аниме\Онгоинги\!_34_Весна_2024\DreamCast\Две стороны сэйю радио\[DC] Seiyuu Radio no Uraomote - 04_Telegram_HEVC.mkv':
  Metadata:
    COMPATIBLE_BRANDS: isomiso2avc1mp41
    MAJOR_BRAND     : isom
    MINOR_VERSION   : 512
    ENCODER         : Lavf61.7.100
  Duration: 00:23:47.67, start: -0.021000, bitrate: 923 kb/s
  Stream #0:0: Video: hevc (Main 10), yuv420p10le(tv, bt709, progressive), 1920x1080 [SAR 1:1 DAR 16:9], 23.98 fps, 23.98 tbr, 1k tbn (default)
      Metadata:
        HANDLER_NAME    : VideoHandler
        VENDOR_ID       : [0][0][0][0]
        ENCODER         : Lavc61.19.100 libx265
        BPS             : 727125
        DURATION        : 00:23:46.549708333
        NUMBER_OF_FRAMES: 34203
        NUMBER_OF_BYTES : 129660072
        _STATISTICS_WRITING_APP: mkvpropedit v66.0.0 ('Josie') 64-bit
        _STATISTICS_WRITING_DATE_UTC: 2025-05-26 08:20:08
        _STATISTICS_TAGS: BPS DURATION NUMBER_OF_FRAMES NUMBER_OF_BYTES
  Stream #0:1: Audio: aac (LC), 48000 Hz, stereo, fltp (default)
      Metadata:
        HANDLER_NAME    : SoundHandler
        VENDOR_ID       : [0][0][0][0]
        ENCODER         : Lavc61.19.100 aac
        BPS             : 193094
        DURATION        : 00:23:47.669000000
        NUMBER_OF_FRAMES: 66923
        NUMBER_OF_BYTES : 34459313
        _STATISTICS_WRITING_APP: mkvpropedit v66.0.0 ('Josie') 64-bit
        _STATISTICS_WRITING_DATE_UTC: 2025-05-26 08:20:08
        _STATISTICS_TAGS: BPS DURATION NUMBER_OF_FRAMES NUMBER_OF_BYTES
Input #1, mov,mp4,m4a,3gp,3g2,mj2, from 'G:\Аниме\Онгоинги\!_34_Весна_2024\DreamCast\Две стороны сэйю радио\[DC] Seiyuu Radio no Uraomote - 04_Telegram.mp4':
  Metadata:
    major_brand     : isom
    minor_version   : 512
    compatible_brands: isomiso2avc1mp41
    encoder         : Lavf60.16.100
  Duration: 00:23:47.61, start: 0.000000, bitrate: 3677 kb/s
  Stream #1:0[0x1](und): Video: h264 (High) (avc1 / 0x31637661), yuv420p(tv, bt709, progressive), 1920x1080 [SAR 1:1 DAR 16:9], 3532 kb/s, 23.98 fps, 23.98 tbr, 24k tbn (default)
      Metadata:
        handler_name    : VideoHandler
        vendor_id       : [0][0][0][0]
        encoder         : Lavc60.31.102 h264_qsv
  Stream #1:1[0x2](und): Audio: aac (HE-AACv2) (mp4a / 0x6134706D), 48000 Hz, stereo, fltp, 144 kb/s (default)
      Metadata:
        handler_name    : SoundHandler
        vendor_id       : [0][0][0][0]
Stream mapping:
  Stream #0:0 (hevc) -> settb:default
  Stream #1:0 (h264) -> settb:default
  psnr:default -> Stream #0:0 (wrapped_avframe)
  Stream #0:1 -> #0:1 (aac (native) -> pcm_s16le (native))
Output #0, null, to 'pipe:':
  Metadata:
    COMPATIBLE_BRANDS: isomiso2avc1mp41
    MAJOR_BRAND     : isom
    MINOR_VERSION   : 512
    encoder         : Lavf61.7.100
  Stream #0:0: Video: wrapped_avframe, yuv420p10le(tv, bt709, progressive), 1920x1080 [SAR 1:1 DAR 16:9], q=2-31, 200 kb/s, 23.98 fps, 23.98 tbn
      Metadata:
        encoder         : Lavc61.19.100 wrapped_avframe
  Stream #0:1: Audio: pcm_s16le, 48000 Hz, stereo, s16, 1536 kb/s (default)
      Metadata:
        HANDLER_NAME    : SoundHandler
        VENDOR_ID       : [0][0][0][0]
        _STATISTICS_TAGS: BPS DURATION NUMBER_OF_FRAMES NUMBER_OF_BYTES
        BPS             : 193094
        DURATION        : 00:23:47.669000000
        NUMBER_OF_FRAMES: 66923
        NUMBER_OF_BYTES : 34459313
        _STATISTICS_WRITING_APP: mkvpropedit v66.0.0 ('Josie') 64-bit
        _STATISTICS_WRITING_DATE_UTC: 2025-05-26 08:20:08
        encoder         : Lavc61.19.100 pcm_s16le
frame=  175 fps=0.0 q=-0.0 size=N/A time=00:00:07.29 bitrate=N/A speed=  14x    frame=  370 fps=360 q=-0.0 size=N/A time=00:00:15.43 bitrate=N/A speed=  15x    frame=  616 fps=397 q=-0.0 size=N/A time=00:00:25.69 bitrate=N/A speed=16.6x    frame=  833 fps=405 q=-0.0 size=N/A time=00:00:34.74 bitrate=N/A speed=16.9x    frame= 1086 fps=421 q=-0.0 size=N/A time=00:00:45.29 bitrate=N/A speed=17.6x    frame= 1332 fps=432 q=-0.0 size=N/A time=00:00:55.55 bitrate=N/A speed=  18x    frame= 1586 fps=439 q=-0.0 size=N/A time=00:01:06.14 bitrate=N/A speed=18.3x    frame= 1846 fps=448 q=-0.0 size=N/A time=00:01:16.99 bitrate=N/A speed=18.7x    frame= 2134 fps=460 q=-0.0 size=N/A time=00:01:29.00 bitrate=N/A speed=19.2x    frame= 2400 fps=465 q=-0.0 size=N/A time=00:01:40.10 bitrate=N/A speed=19.4x    frame= 2665 fps=470 q=-0.0 size=N/A time=00:01:51.15 bitrate=N/A speed=19.6x    frame= 2921 fps=472 q=-0.0 size=N/A time=00:02:01.83 bitrate=N/A speed=19.7x    frame= 3143 fps=469 q=-0.0 size=N/A time=00:02:11.08 bitrate=N/A speed=19.6x    frame= 3405 fps=472 q=-0.0 size=N/A time=00:02:22.01 bitrate=N/A speed=19.7x    frame= 3635 fps=471 q=-0.0 size=N/A time=00:02:31.60 bitrate=N/A speed=19.6x    frame= 3758 fps=456 q=-0.0 size=N/A time=00:02:36.73 bitrate=N/A speed=  19x    frame= 3908 fps=446 q=-0.0 size=N/A time=00:02:42.99 bitrate=N/A speed=18.6x    frame= 4125 fps=444 q=-0.0 size=N/A time=00:02:52.04 bitrate=N/A speed=18.5x    frame= 4330 fps=442 q=-0.0 size=N/A time=00:03:00.59 bitrate=N/A speed=18.4x    frame= 4554 fps=442 q=-0.0 size=N/A time=00:03:09.93 bitrate=N/A speed=18.4x    frame= 4750 fps=439 q=-0.0 size=N/A time=00:03:18.11 bitrate=N/A speed=18.3x    frame= 4978 fps=439 q=-0.0 size=N/A time=00:03:27.62 bitrate=N/A speed=18.3x    frame= 5240 fps=442 q=-0.0 size=N/A time=00:03:38.55 bitrate=N/A speed=18.4x    frame= 5496 fps=444 q=-0.0 size=N/A time=00:03:49.22 bitrate=N/A speed=18.5x    frame= 5735 fps=445 q=-0.0 size=N/A time=00:03:59.19 bitrate=N/A speed=18.6x    frame= 5984 fps=447 q=-0.0 size=N/A time=00:04:09.58 bitrate=N/A speed=18.6x    frame= 6230 fps=448 q=-0.0 size=N/A time=00:04:19.84 bitrate=N/A speed=18.7x    frame= 6482 fps=449 q=-0.0 size=N/A time=00:04:30.39 bitrate=N/A speed=18.7x    frame= 6717 fps=449 q=-0.0 size=N/A time=00:04:40.15 bitrate=N/A speed=18.7x    frame= 6948 fps=449 q=-0.0 size=N/A time=00:04:49.78 bitrate=N/A speed=18.7x    frame= 7229 fps=452 q=-0.0 size=N/A time=00:05:01.50 bitrate=N/A speed=18.9x    frame= 7488 fps=454 q=-0.0 size=N/A time=00:05:12.31 bitrate=N/A speed=18.9x    frame= 7758 fps=456 q=-0.0 size=N/A time=00:05:23.57 bitrate=N/A speed=  19x    frame= 8011 fps=457 q=-0.0 size=N/A time=00:05:34.12 bitrate=N/A speed=19.1x    frame= 8277 fps=459 q=-0.0 size=N/A time=00:05:45.21 bitrate=N/A speed=19.1x    frame= 8538 fps=460 q=-0.0 size=N/A time=00:05:56.10 bitrate=N/A speed=19.2x    frame= 8774 fps=460 q=-0.0 size=N/A time=00:06:05.94 bitrate=N/A speed=19.2x    frame= 9025 fps=461 q=-0.0 size=N/A time=00:06:16.41 bitrate=N/A speed=19.2x    frame= 9244 fps=460 q=-0.0 size=N/A time=00:06:25.55 bitrate=N/A speed=19.2x    frame= 9496 fps=460 q=-0.0 size=N/A time=00:06:36.06 bitrate=N/A speed=19.2x    frame= 9735 fps=461 q=-0.0 size=N/A time=00:06:46.03 bitrate=N/A speed=19.2x    frame= 9978 fps=461 q=-0.0 size=N/A time=00:06:56.16 bitrate=N/A speed=19.2x    frame=10236 fps=462 q=-0.0 size=N/A time=00:07:06.92 bitrate=N/A speed=19.3x    frame=10503 fps=463 q=-0.0 size=N/A time=00:07:18.06 bitrate=N/A speed=19.3x    frame=10773 fps=464 q=-0.0 size=N/A time=00:07:29.32 bitrate=N/A speed=19.4x    frame=11051 fps=466 q=-0.0 size=N/A time=00:07:40.91 bitrate=N/A speed=19.4x    frame=11315 fps=467 q=-0.0 size=N/A time=00:07:51.92 bitrate=N/A speed=19.5x    frame=11589 fps=468 q=-0.0 size=N/A time=00:08:03.35 bitrate=N/A speed=19.5x    frame=11852 fps=469 q=-0.0 size=N/A time=00:08:14.32 bitrate=N/A speed=19.6x    frame=12109 fps=470 q=-0.0 size=N/A time=00:08:25.04 bitrate=N/A speed=19.6x    frame=12361 fps=470 q=-0.0 size=N/A time=00:08:35.55 bitrate=N/A speed=19.6x    frame=12640 fps=471 q=-0.0 size=N/A time=00:08:47.19 bitrate=N/A speed=19.7x    frame=12922 fps=473 q=-0.0 size=N/A time=00:08:58.95 bitrate=N/A speed=19.7x    frame=13187 fps=474 q=-0.0 size=N/A time=00:09:10.00 bitrate=N/A speed=19.8x    frame=13418 fps=473 q=-0.0 size=N/A time=00:09:19.64 bitrate=N/A speed=19.7x    frame=13677 fps=474 q=-0.0 size=N/A time=00:09:30.44 bitrate=N/A speed=19.8x    frame=13960 fps=475 q=-0.0 size=N/A time=00:09:42.24 bitrate=N/A speed=19.8x    frame=14185 fps=474 q=-0.0 size=N/A time=00:09:51.63 bitrate=N/A speed=19.8x    frame=14450 fps=475 q=-0.0 size=N/A time=00:10:02.68 bitrate=N/A speed=19.8x    frame=14712 fps=475 q=-0.0 size=N/A time=00:10:13.61 bitrate=N/A speed=19.8x    frame=14964 fps=476 q=-0.0 size=N/A time=00:10:24.12 bitrate=N/A speed=19.8x    frame=15199 fps=475 q=-0.0 size=N/A time=00:10:33.92 bitrate=N/A speed=19.8x    frame=15458 fps=476 q=-0.0 size=N/A time=00:10:44.72 bitrate=N/A speed=19.9x    frame=15666 fps=475 q=-0.0 size=N/A time=00:10:53.40 bitrate=N/A speed=19.8x    frame=15910 fps=475 q=-0.0 size=N/A time=00:11:03.57 bitrate=N/A speed=19.8x    frame=16175 fps=475 q=-0.0 size=N/A time=00:11:14.63 bitrate=N/A speed=19.8x    frame=16442 fps=476 q=-0.0 size=N/A time=00:11:25.76 bitrate=N/A speed=19.8x    frame=16701 fps=476 q=-0.0 size=N/A time=00:11:36.57 bitrate=N/A speed=19.9x    frame=16970 fps=477 q=-0.0 size=N/A time=00:11:47.79 bitrate=N/A speed=19.9x    frame=17242 fps=478 q=-0.0 size=N/A time=00:11:59.13 bitrate=N/A speed=19.9x    frame=17496 fps=478 q=-0.0 size=N/A time=00:12:09.72 bitrate=N/A speed=19.9x    frame=17780 fps=479 q=-0.0 size=N/A time=00:12:21.57 bitrate=N/A speed=  20x    frame=18060 fps=480 q=-0.0 size=N/A time=00:12:33.25 bitrate=N/A speed=  20x    frame=18342 fps=481 q=-0.0 size=N/A time=00:12:45.01 bitrate=N/A speed=20.1x    frame=18610 fps=481 q=-0.0 size=N/A time=00:12:56.19 bitrate=N/A speed=20.1x    frame=18876 fps=482 q=-0.0 size=N/A time=00:13:07.28 bitrate=N/A speed=20.1x    frame=19110 fps=481 q=-0.0 size=N/A time=00:13:17.04 bitrate=N/A speed=20.1x    frame=19362 fps=481 q=-0.0 size=N/A time=00:13:27.55 bitrate=N/A speed=20.1x    frame=19636 fps=482 q=-0.0 size=N/A time=00:13:38.98 bitrate=N/A speed=20.1x    frame=19924 fps=483 q=-0.0 size=N/A time=00:13:50.99 bitrate=N/A speed=20.1x    frame=20182 fps=483 q=-0.0 size=N/A time=00:14:01.75 bitrate=N/A speed=20.1x    frame=20442 fps=483 q=-0.0 size=N/A time=00:14:12.60 bitrate=N/A speed=20.2x    frame=20719 fps=484 q=-0.0 size=N/A time=00:14:24.15 bitrate=N/A speed=20.2x    frame=21004 fps=485 q=-0.0 size=N/A time=00:14:36.08 bitrate=N/A speed=20.2x    frame=21288 fps=486 q=-0.0 size=N/A time=00:14:47.88 bitrate=N/A speed=20.3x    frame=21571 fps=486 q=-0.0 size=N/A time=00:14:59.69 bitrate=N/A speed=20.3x    frame=21827 fps=486 q=-0.0 size=N/A time=00:15:10.36 bitrate=N/A speed=20.3x    frame=22088 fps=487 q=-0.0 size=N/A time=00:15:21.25 bitrate=N/A speed=20.3x    frame=22370 fps=487 q=-0.0 size=N/A time=00:15:33.01 bitrate=N/A speed=20.3x    frame=22658 fps=488 q=-0.0 size=N/A time=00:15:45.02 bitrate=N/A speed=20.4x    frame=22945 fps=489 q=-0.0 size=N/A time=00:15:56.99 bitrate=N/A speed=20.4x    frame=23226 fps=489 q=-0.0 size=N/A time=00:16:08.71 bitrate=N/A speed=20.4x    frame=23494 fps=490 q=-0.0 size=N/A time=00:16:19.89 bitrate=N/A speed=20.4x    frame=23779 fps=490 q=-0.0 size=N/A time=00:16:31.78 bitrate=N/A speed=20.4x    frame=24066 fps=491 q=-0.0 size=N/A time=00:16:43.75 bitrate=N/A speed=20.5x    frame=24334 fps=491 q=-0.0 size=N/A time=00:16:54.93 bitrate=N/A speed=20.5x    frame=24620 fps=492 q=-0.0 size=N/A time=00:17:06.85 bitrate=N/A speed=20.5x    frame=24901 fps=492 q=-0.0 size=N/A time=00:17:18.57 bitrate=N/A speed=20.5x    frame=25133 fps=492 q=-0.0 size=N/A time=00:17:28.25 bitrate=N/A speed=20.5x    frame=25410 fps=493 q=-0.0 size=N/A time=00:17:39.80 bitrate=N/A speed=20.5x    frame=25676 fps=493 q=-0.0 size=N/A time=00:17:50.90 bitrate=N/A speed=20.5x    frame=25957 fps=493 q=-0.0 size=N/A time=00:18:02.62 bitrate=N/A speed=20.6x    frame=26224 fps=494 q=-0.0 size=N/A time=00:18:13.75 bitrate=N/A speed=20.6x    frame=26491 fps=494 q=-0.0 size=N/A time=00:18:24.89 bitrate=N/A speed=20.6x    frame=26750 fps=494 q=-0.0 size=N/A time=00:18:35.69 bitrate=N/A speed=20.6x    frame=26999 fps=494 q=-0.0 size=N/A time=00:18:46.08 bitrate=N/A speed=20.6x    frame=27252 fps=494 q=-0.0 size=N/A time=00:18:56.63 bitrate=N/A speed=20.6x    frame=27464 fps=493 q=-0.0 size=N/A time=00:19:05.47 bitrate=N/A speed=20.6x    frame=27731 fps=493 q=-0.0 size=N/A time=00:19:16.61 bitrate=N/A speed=20.6x    frame=28004 fps=494 q=-0.0 size=N/A time=00:19:28.00 bitrate=N/A speed=20.6x    frame=28291 fps=494 q=-0.0 size=N/A time=00:19:39.97 bitrate=N/A speed=20.6x    frame=28539 fps=494 q=-0.0 size=N/A time=00:19:50.31 bitrate=N/A speed=20.6x    frame=28792 fps=494 q=-0.0 size=N/A time=00:20:00.86 bitrate=N/A speed=20.6x    frame=29080 fps=494 q=-0.0 size=N/A time=00:20:12.87 bitrate=N/A speed=20.6x    frame=29341 fps=495 q=-0.0 size=N/A time=00:20:23.76 bitrate=N/A speed=20.6x    frame=29626 fps=495 q=-0.0 size=N/A time=00:20:35.65 bitrate=N/A speed=20.6x    frame=29836 fps=494 q=-0.0 size=N/A time=00:20:44.40 bitrate=N/A speed=20.6x    frame=30104 fps=494 q=-0.0 size=N/A time=00:20:55.58 bitrate=N/A speed=20.6x    frame=30387 fps=495 q=-0.0 size=N/A time=00:21:07.39 bitrate=N/A speed=20.6x    frame=30675 fps=496 q=-0.0 size=N/A time=00:21:19.40 bitrate=N/A speed=20.7x    frame=30926 fps=495 q=-0.0 size=N/A time=00:21:29.87 bitrate=N/A speed=20.7x    frame=31217 fps=496 q=-0.0 size=N/A time=00:21:42.00 bitrate=N/A speed=20.7x    frame=31492 fps=496 q=-0.0 size=N/A time=00:21:53.47 bitrate=N/A speed=20.7x    frame=31732 fps=496 q=-0.0 size=N/A time=00:22:03.48 bitrate=N/A speed=20.7x    frame=31995 fps=496 q=-0.0 size=N/A time=00:22:14.45 bitrate=N/A speed=20.7x    frame=32244 fps=496 q=-0.0 size=N/A time=00:22:24.84 bitrate=N/A speed=20.7x    frame=32446 fps=495 q=-0.0 size=N/A time=00:22:33.26 bitrate=N/A speed=20.7x    frame=32663 fps=495 q=-0.0 size=N/A time=00:22:42.31 bitrate=N/A speed=20.6x    frame=32896 fps=494 q=-0.0 size=N/A time=00:22:52.03 bitrate=N/A speed=20.6x    frame=33097 fps=493 q=-0.0 size=N/A time=00:23:00.42 bitrate=N/A speed=20.6x    frame=33294 fps=493 q=-0.0 size=N/A time=00:23:08.63 bitrate=N/A speed=20.5x    frame=33506 fps=492 q=-0.0 size=N/A time=00:23:17.47 bitrate=N/A speed=20.5x    frame=33732 fps=492 q=-0.0 size=N/A time=00:23:26.90 bitrate=N/A speed=20.5x    frame=33959 fps=491 q=-0.0 size=N/A time=00:23:36.37 bitrate=N/A speed=20.5x    [Parsed_psnr_10 @ 00000170d7395800] PSNR y:49.124716 u:51.206315 v:51.045138 average:49.694853 min:39.085572 max:inf
[out#0/null @ 00000170c9f43b80] video:14697KiB audio:267692KiB subtitle:0KiB other streams:0KiB global headers:0KiB muxing overhead: unknown
frame=34203 fps=491 q=-0.0 Lsize=N/A time=00:23:46.55 bitrate=N/A speed=20.5x    
